<?xml version="1.0" encoding="UTF-8"?>
<svg id="Camada_1" data-name="Camada 1" xmlns="http://www.w3.org/2000/svg" viewBox="0 0 775.721338996660052 217.737294958419625">
  <defs>
    <style>
      .cls-1 {
        fill: #f7f2d5;
      }

      .cls-1, .cls-2, .cls-3 {
        stroke-width: 0px;
      }

      .cls-2 {
        fill: #4a4f39;
      }

      .cls-3 {
        fill: #81954d;
      }
    </style>
  </defs>
  <g>
    <path class="cls-3" d="M775.24393050290746,85.637212722765071c-.172056801366125-1.965167865794683-.388635587176395-3.91369928230506-.655089838055574-5.85111714409868-.30535169237919-2.226099222102675-.671692404548594-4.435528112131578-1.099157667653344-6.622763775515523-.111000016007893-.571805943261097-.222000032013966-1.138055109161542-.344181368313002-1.704270392276158-1.271214469023107-6.089855273762623-3.003302630877442-12.007585980579279-5.157163747324375-17.725475999239279-.788316963495163-2.103985651378935-1.637690712348558-4.180187415969158-2.542564469204081-6.228639176558318-2.076201764590223,1.815304291071698-4.246733213112748,3.669438258070841-6.500616322005953,5.556912889220257-7.094649374696019,5.92328748417458-15.066388619459758,12.135256328660034-23.926399054584181,18.39720228657734-3.913665399513775,2.775678055930257-7.993898588618322,5.556912889219348-12.257369899380137,8.32703416779168-11.080485114289331,7.211206168062745-23.332332119103739,14.3613555507618-36.783257135650274,21.095153225072863-.0721703400759.033306781358988-.138783902797513.072170340076809-.210954242871594.105477121438526-1.410066137399554.704999185907582-2.836768724082503,1.404475477247615-4.274550982692745,2.103951768589468-1.410066137395916.682805959267171-2.836734841290308,1.365645801321079-4.274550982690926,2.037338205874221-2.953325517444682,1.382316133393942-5.962151042893311,2.747928051928284-9.026510459132624,4.080267071889466-.743862744628132.327511036240139-1.493316149400925.649499177905454-2.2427356713888.971487319577136-.749453404772794.321954258880396-1.504429704116774.64394240054844-2.264962780820497.960373764858559-1.138021226372075.477408493750772-2.281599230103893.954850870290102-3.430734011193636,1.42670258668295-.566249165904082.227590692158628-1.126941554446603.460772044465557-1.693156837562128.688362736626004-.593999169901508.244261024232401-1.187998339804835.482965271106877-1.781997509709981.716112740625249-1.026987327579263.40527203646343-2.059531432516451.810510190134664-3.09766619760012,1.215748343809537-1.3156686878865.510749157896498-2.642417047702111,1.015907655650153-3.974756067664202,1.515543258834441-.577328837829555.216511020231337-1.16024833580741.432988157674117-1.737577173636964.64394240054753-.482965271108696.177647461514425-.971487319575317.35529492302885-1.454452590684014.532942384543276-.488522048466621.177647461512606-.971487319577136.355294923027031-1.454452590684014.527385607183533-1.332339019962092.482965271108696-2.664644157135626.94926021014362-3.991426399741613,1.410032254609177-.571805943260188.199840688157565-1.143578003731818.394158481747581-1.715383946992006.588442392545403-1.793077181637273.616192396548286-3.575074691352711,1.210191566453432-5.345958646345025,1.7819975097118-.882646647423826.288647477522318-1.765327177638028.571772060469812-2.647973825060035.849339866064838-.438578817822417.138783902795694-.882680530212383.283124582952951-1.321225465246243.416351708390721-2.320462788826262.727226295341097-4.624289128361852,1.421145809323207-6.911445135825488,2.087315319304253-.766089854059828.22206779759108-1.532179708119656.444101712391785-2.292712784823379.660612732623122-.555135611182777.160977129440653-1.104714445013087.31643136431012-1.654293278839759.466328821823481-.460772044465557.127670348081665-.921544088931114.255340696161511-1.376725473252009.383044927031733-.460772044465557.127670348078027-.915987311571371.249783918801768-1.371202578677185.371931372312247-3.036575529451511.827146639421699-6.039878160328954,1.598793270839451-9.015396904418594,2.331576343540291-.82714663941988.205397465515489-1.654293278843397.399681376315129-2.481473801053653.599522064474513-1.781963626919605.421908485745007-3.552847581915557.82714663941988-5.307095087624475,1.221305121165642-1.898554303075798.421908485746826-3.780472156866381.821589862061956-5.64571967858501,1.210191566449794-1.71535006420163.35529492302885-3.41409756190842.693919513983928-5.096140844751062,1.015907655651972-.67172628733897.127670348079846-1.337861914533278.255374578951887-2.004031424512505.37748814967199-1.376759356040566.255374578948249-2.742371274573088.505192380542212-4.0969035211765.743896627416689-.460772044465557.077693234647086-.91598731157319.155420352082729-1.365645801322898.233147469516553-.199840688157565.038863558718731-.405238153674873.072170340077719-.605078841832437.105477121438526-.799396635418816.13322712543777-1.593236493479708.26645425087554-2.381553456973052.394158481745762-.982566991502608.160977129438834-1.965167865793774.316397481521562-2.93665518537091.466294939034924-.96037376485765.149897457511543-1.915224635147752.29423813766698-2.864518728081748.433022040462674-.977010214144684.14430679736688-1.94849753372182.283090700162575-2.914461958725951.416351708390721-.954816987501545.133227125439589-1.904111080433722.260897473517616-2.842291618650052.383044927031733-.227590692158628.033306781357169-.455215267107633.061056785358232-.68280595926808.09436356671722-.49963560318065.066613562721614-.999237323576381.127670348083484-1.498872926757031.188727133445354-2.598030594417651.327544919024149-5.157197630116571.621749173902572-7.671978212529211.882680530210564-.505158497751836.055500008002127-1.004794100936124.105477121436707-1.504395821328217.155420352082729-.394158481747581.044420336073017-.78276018613542.083283894791748-1.176884785092625.116590676152555-.388601704389657.038863558716912-.777203408773858.0721703400759-1.165805113165334.111033898794631-.882646647423826.083283894793567-1.759770400276466.160977129440653-2.631337375776639.238704246876296-.160977129438834.016670332071953-.321988141668044.033306781358988-.477408493748953.044420336074836-1.493316149400925.133227125439589-2.969995849520274.249817801592144-4.424448440204287.35529492302885-.721669517984992.055500008002127-1.448895813326089.105443238648149-2.165008553951338.155420352082729-.716146623415625.049977113430941-1.432259364042693.099920344076963-2.137292432740651.144340680151799-.072170340077719,0-.138783902795694.005556777359743-.210954242871594.011113554719486.8549305262095,2.231622116669314,1.770883954990495,4.424414557412092,2.753484829287117,6.589456994153807.160977129438834.355261040238474.321988141666225.716112740627068.494078825822726,1.071407663655918,11.274802907877529,24.259432985390958,30.338140821650086,44.166587870657168,53.975824633134835,56.507241664830872,5.445878990423807,2.842291618650052,11.136019005083654,5.290458638344717,17.025999707897427,7.288933285497478,3.947039946451696,1.343418691887564,7.982852799479588,2.486996695621201,12.101983430087785,3.419620456479606,8.665658758747668,1.970758525940255,17.686612440520548,3.008859408237186,26.946270369169724,3.008859408237186,48.740899885586259,0,90.770229206289514-28.756017882884407,110.044521362935484-70.224654815045142,1.271282234603859-2.720178047929949,2.437053464975179-5.50141288121813,3.497381456701987-8.32703416779259,3.575040808562335-9.481725726240256,5.989934929686569-19.535223512952143,7.083535819983808-29.977323004050959.07765935185671-.749453404773703.149897457511543-1.504429704117683.216443254652404-2.259406003461663.177681344302982-2.009588201872248.299794915026723-4.030289958458525.371965255104442-6.067628164330017.049943230644203-1.35453224660705.077727117433824-2.709064493211372.083283894793567-4.074710294533361v-.921510206140738c-.016670332075591-3.447404343271046-.172124566946877-6.867024799750652-.477408493752591-10.247815580300085ZM709.088395322251017,149.144740195572922c-24.759034705786689,22.394151580885591-52.199383900782777,41.285432693288385-81.838082313879568,56.385128094110769-31.798150189690205-7.982852799479588-58.228182389182621-29.477721283657957-72.850435413463856-58.017228146309208h156.476072014413148c-.593999169906965.549578833826672-1.187998339808473,1.088044112939315-1.787554287069725,1.632100052198439ZM761.321153769968078,59.301577972782979c1.371168695890447,3.958119618380806,2.525826371551375,8.010602803481561,3.452927237838594,12.157483438091731h-19.10779213263595c5.323731536915147-3.919256059662985,10.542019835178507-7.971739244763739,15.654864894797356-12.157483438091731ZM733.930713922827636,79.786095578666391h32.381103570458436c.172056801364306,1.154657675659109.321954258879487,2.314906011465609.455181384317257,3.486234019199401-4.124687407966121,6.001014601609313-8.415874839942262,11.868802077782675-12.879186838861642,17.608919205873462h-54.547596693610103c11.868802077784494-6.422923087358868,23.421172791255231-13.467595348620307,34.590498577696053-21.095153225072863ZM658.460054688306627,120.016757057585892c8.304807058359074-3.30306366311379,16.509727655427923-6.911445135825488,24.598057576344218-10.808474086054957h64.162515662497754c-8.621204539884275,10.469849495101698-17.808658245667175,20.473404051167563-27.540235656288132,29.977323004050959h-124.689001496644778c21.600311722824699-4.552118788282314,42.800942069334269-10.952848648999861,63.468663914090939-19.168848917996002Z"/>
    <path class="cls-2" d="M685.767176757864945,100.98672592517778c-11.191552895877976,5.595742565145883-23.210218548381818,10.902837652774906-36.061621500455658,15.715887797367031-41.368716588083771,15.49381999977777-79.140131375384954,21.311664245306019-108.578989100320541,23.149161763019947-5.168311184832419-13.478708903339793-7.999489248768441-28.112075482336877-7.999489248768441-43.411611571314097,0-15.932398817600188,3.069916193599056-31.14865101178475,8.660101981389744-45.082575182228538,4.702016245795676.466328821822572,9.598316402392811,1.138021226372985,14.65559368842878,2.059565315304098,37.499403759065899,6.844797690315318,62.502733371871727,23.670990592845556,72.167629454197595,29.422187392863634,13.462038571262383,8.010602803481561,31.714900177685195,15.09413862346446,57.156774725528521,18.147384484987924Z"/>
    <polygon class="cls-2" points="679.003608768707636 0 655.256911369269801 34.5425432669972 678.733555113274633 68.566752065545188 700.222895875343966 33.987407655810784 679.003608768707636 0"/>
    <path class="cls-1" d="M747.220627927148598,109.208282971530934c-8.621204539884275,10.469849495101698-17.808658245667175,20.473404051167563-27.540235656288132,29.977323004050959h-124.689001496644778c21.600311722824699-4.552118788282314,42.800942069334269-10.952848648999861,63.468663914090939-19.168848917996002,8.304807058359074-3.30306366311379,16.509727655427923-6.911445135825488,24.598057576344218-10.808474086054957h64.162515662497754Z"/>
    <path class="cls-1" d="M764.774081007806672,71.45906141087471h-19.10779213263595c5.323731536915147-3.919256059662985,10.542019835178507-7.971739244763739,15.654864894797356-12.157483438091731,1.371168695890447,3.958119618380806,2.525826371551375,8.010602803481561,3.452927237838594,12.157483438091731Z"/>
    <path class="cls-1" d="M710.875949609320742,147.512640143374483c-.593999169906965.549578833826672-1.187998339808473,1.088044112939315-1.787554287069725,1.632100052198439-24.759034705786689,22.394151580885591-52.199383900782777,41.285432693288385-81.838082313879568,56.385128094110769-31.798150189690205-7.982852799479588-58.228182389182621-29.477721283657957-72.850435413463856-58.017228146309208h156.476072014413148Z"/>
    <path class="cls-1" d="M766.766998877603328,83.272329597865792c-4.124687407966121,6.001014601609313-8.415874839942262,11.868802077782675-12.879186838861642,17.608919205873462h-54.547596693610103c11.868802077784494-6.422923087358868,23.421172791255231-13.467595348620307,34.590498577696053-21.095153225072863h32.381103570458436c.172056801364306,1.154657675659109.321954258879487,2.314906011465609.455181384317257,3.486234019199401Z"/>
  </g>
  <g>
    <path class="cls-3" d="M36.205698888475126,68.176148961845684c0-20.933525725944492-.639913978966433-24.802413776946196-1.729370726370689-26.377039448155301-.346104804278184-.500239291488469-.785626505073196-.866773893241771-.785674962847224-.866812659460265-1.991934328450952-1.772333388707011-4.795613902105288-1.612829780149696-5.65563278166519-1.579607130366639-2.542424331469192.09823359924394-14.967385220707001.578295073680238-22.230100690537256-4.446020138107087-1.145057197172719-.792148921439548-5.082464540462752-3.516018541487028-5.716311606138333-8.256894542199007-.434220420331258-3.247756305196162.710420039986275-7.228872560542186,3.810874404091919-9.527186010230253,4.005035012540247-2.968852741758383,8.996660610057006-1.441831987624028,9.527186010231162-1.270291468030337,5.382592608867526,1.740448173482946,5.509086781846236,6.467096971779029,11.432623212275757,9.527186010229343,2.009262828396459,1.037984899971889,4.303525208188148,1.327142128366177,8.892040276215084,1.905437202047324l.000174447985955.000019383108338c6.826324141228724.758480460136525,11.823183178325962.638789758612802,26.04080064664322.635126350905921.265025256994704-.000077532437899.984177387836098-.000077532437899,1.270291468031246,0,3.955569316945912-.064119326420041,8.658105526952568-.085595811809981,13.97320614833643,0,3.045997517801879.049058650293773,4.338637711153751.151595299857036,4.446020138107997.635145734015168.11519382010647.518730778007011-1.19568587934009,1.213518340134215-2.540582936061583,1.905437202046414-8.061977992478205,4.14775284822008-11.526495611868086,5.198840730252414-13.97320614833734,8.256894542199916-.390724722483355.488357445326983-1.130694312989363,1.413222517915528-1.698735721714002,2.815668026916683-.663813353052319,1.638919445615102-.84037409802113,3.318427122646426-1.004200140009743,4.79538130479159-.059351081468776.535051356254371-.091914705527415.984487517588605-.112732165192938,1.330921834729452-.190729798056964,3.176038799829257-.317572867008494,16.578296073009369-.317572867008494,26.23325554144958,0,22.930063542916287-2.858465932821673,41.858522883685509-31.632304410332836,41.858522883685509-20.135484339199138,0-27.122397543121224-9.908645606343271-27.122397543121224-20.64347687451118,0-7.30448607092967,4.382753668508485-15.117274806922978,13.338987713890674-15.117274806922978,7.05049289296403,0,10.035801894739052,3.811184533845335,10.035801894739052,8.32078127130444,0,2.858465932821673-2.286586668407836,6.542497267962972-2.286586668407836,10.607678069462054,0,2.858465932822583,1.58786433503883,5.335472269533057,5.208319070828111,5.335472269533057,5.653355266291328,0,8.829083936368079-6.415344069258936,8.829083936368079-18.864882741416295v-17.213441807025447Z"/>
    <path class="cls-3" d="M98.260181413182181,47.786668354990979c17.912164140392633,0,33.918891078738852,12.576691870861396,33.918891078738852,35.316335745474134,0,21.405775807230384-14.990431737971448,32.013143746939932-33.156592146019648,32.013143746939932-20.135484339200048,0-33.093325676421046-13.910559938242841-33.093325676421046-33.156592146019648,0-20.262327408149758,13.592987071237076-34.172887346394418,32.331026743701841-34.172887346394418ZM88.986371411100663,73.765617499032487c0,6.224924400955388.953028730775259,14.164556205899316,3.493611666836841,20.008331140496011,2.223320198808324,4.891056333571214,5.526202067588201,7.685945667041779,9.337386601433536,7.685945667041779,4.255600469804449,0,8.32078127130444-3.176038799830167,8.32078127130444-12.640268470214323,0-6.224924400954478-1.651440934389939-14.545705672258919-4.192334000204937-20.325904007502686-2.731312734117637-6.16134780160337-6.224614271201972-9.273810002080609-9.654649338688614-9.273810002080609-3.620454735787462,0-7.304796200681267,3.176038799830167-7.304796200681267,14.545705672259828Z"/>
    <path class="cls-3" d="M183.561059828800353,52.804567757513723c8.829083936368988,0,10.607678069463873-2.477316466460252,13.402567402932618-2.477316466460252,1.587864335037921,0,2.477006336709564,1.206714868677409,2.477006336709564,3.556878136435444,0,2.477316466462071-.444415935959114,5.145052601228599-1.206714868678318,7.241219601330158-.57156913466315,1.58786433503883-1.905437202047324,5.017899402523653-4.954322803171635,5.017899402523653-2.159743599454487,0-4.382753668508485-.761988802966698-5.14505260122769-.761988802966698-.508302665064548,0-.635145734016987.253996267656476-.635145734016987.635145734015168,0,.889142001670734,1.905437202047324,3.302881868780787,1.905437202047324,7.050489803274104,0,14.03740300719619-12.005122736198246,22.167764610196173-27.058820943769206,22.167764610196173-2.540893065813179,0-4.954632932923232-.253996267654657-6.478920668610044-.253996267654657-2.794889333470564,0-5.780198335243767,1.58786433503883-5.780198335243767,4.382753668507576,0,2.667736134765619,2.413739867110053,4.255910599556046,6.351767469906918,4.255910599556046,4.637060065916558,0,12.957841337220998-2.223320198805595,21.151779539573909-2.223320198805595,2.812741177373027,0,11.660161535384759.124206966052043,16.646892897738326,6.069820758268179,3.51727844360812,4.193613285436186,3.5523812550191,9.430541825969158,3.562712452414416,10.909977046137101.098853858747134,14.15831484462251-19.665095036432831,28.935900656533704-37.019568348606299,35.938262198773373-35.304938477054748,14.245189941662829-79.82898782101438,4.055508629830001-84.474382624041027-12.067768946293654-.880148238836227-3.054816832649522-1.366703054975005-9.925663976535361,2.540582936061583-15.243497616367677,3.768444777268087-5.128867704746881,9.687755689813457-6.176641075044245,10.797477478260589-6.351457340153502,7.744443891690025-1.219992298727448,13.505549864017667,3.537049215357911,14.608351882353418,4.446020138107997,3.352638311017472,2.763372397326748,3.006552889848535,4.42206261469255,6.98660307416867,8.892040276215994.233954132371764.262757433174556,4.875530462815732,5.412558896243354,10.162331744245421,8.256894542197188,13.301775233228,7.15645726323055,32.392316136125373.635145734016987,32.392432434782677.635145734016987h0c.011242203544498-.006125062622232,19.986234395597421-6.078969585980303,22.865246424552424-17.784080552430169.336141885964025-1.366644905649082,1.19985324789468-4.878302247483589-.635145734015168-6.98660307416867-2.825475880353224-3.246302571980777-8.838523510723462.523634704724827-19.689517754475673.635145734015168-2.151350713016654.022116128006019-18.575880577897806.202456579338104-22.647070143361816-8.219194394109763-.318154360294102-.658134101950054-.941088735287849-2.49491632993977-.941088735287849-4.811217305300488,0-5.780198335242858,4.065180801500901-10.544101470110945,10.099375404399325-13.338990803579691.508302665063638-.253996267655566.88945213142415-.698722333368096.88945213142415-1.079871799728608,0-.381149466358693-.253996267655566-.762298932719204-.762298932719204-1.206714868677409-4.827479734221015-3.811184533845335-7.876365335345326-9.654959468440211-7.876365335345326-16.895868940017863,0-15.054008337323467,11.941546136845318-22.866797073315865,26.296832140801598-22.866797073315865,9.019503604671627,0,17.403861475328085,2.477316466460252,22.167764610197082,2.477316466460252ZM162.917582954290083,83.102693970712608c4.001604202147973,0,7.241219601330158-2.667736134765619,7.241219601330158-9.083080204024554,0-4.636749936164051-2.03259040075045-12.767111539164944-8.066785003649784-12.767111539164944-4.128757400852919,0-6.733227066018117,4.128757400852919-6.733227066018117,10.416948271406909,0,8.447934470009386,3.938337732547552,11.433243471782589,7.558792468337742,11.433243471782589Z"/>
    <path class="cls-3" d="M316.391183660558454,64.758519084478394c-10.153299215189691-1.844283491388524-16.077048859825481-4.884892504733216-17.784080552429259-2.540582936061583-.544045119090697.747160724154128-.453719828547946,1.758319400496475-.276635739619451,2.52817774594314-.056559913693491.471668587999375-.065166014336683.829267576245002-.068267311866293.946186493102687-.100520806169698,3.767669452885457-.439725223445748,11.096617008077374-.439725223445748,19.062144647393325,0,7.30448607092876,2.286896798158523,12.957841337220088,8.447934470008477,12.957841337220088,2.858776062575089,0,4.700326535516069-1.52459786543659,6.03450473265184-2.477316466460252.635145734015168-.44472606571162,1.079871799726789-.762298932720114,1.778284003341469-.762298932720114,1.079871799727698,0,2.096477129855884.889452131423241,2.096477129855884,3.55718826618795,0,1.460711136334794-.508612794817054,3.239305269429678-1.33417819713577,5.08147600187749-2.477316466462071,5.271895670179219-9.210233402728591,12.00481260644392-20.453057206205813,12.00481260644392-13.592987071237985,0-18.67415294336115-9.273499872326283-18.67415294336115-23.247636409923871,0-5.653045136537912.825565402319626-16.260723206001785.825565402319626-24.645081076658244,0-2.794889333470564-.825565402319626-4.319487198908973-3.112462200478149-4.763903134868087-3.175728670076751-.44472606571253-5.398738739130749-1.333868067382355-5.398738739130749-3.811184533846244,0-2.540893065813179.444716557970423-5.14505260122678,3.17572867007766-6.542497267961153,4.637060065916558-2.540582936062492,9.146346673623157-5.843464804843279,12.385962072805341-8.892660535721006,5.399358998635762-5.144742471475183,6.415344069258026-10.480524870759837,10.607678069462054-10.480524870759837,2.604469665167017,0,4.763593005115581,1.905747331798921,4.763593005115581,6.415344069258936,0,2.858465932821673-.635145734014259,10.417258401159415-.635145734014259,10.988827535822566,0,.213756932213073.020080901502297.387507126295532.127308263579835.498882473819322.148668450315199.154444616962792,1.127437950583953.31986007393607,1.981186394200449.558911964120853,3.807540509248611,1.066109791941017,13.152447757190203,1.123522562453218,15.317075900253258.860978343482202,1.440630234832497-.174738732670448,2.993798803759091-.51493168853267,5.081165872123165-1.270291468030337,5.912961509317029-2.139735444497092,10.479138833735306-7.028588298941031,17.148934818414091-6.351457340153502,1.614845623542351.163942340646827,4.897801655698458.534721843392617,6.98660307416867,3.175728670076751,2.547715920379233,3.221259594431103,1.52048864621247,7.270662544749939,1.270291468030337,8.256894542199007-.066329000910628.261536297274688-1.03218935021323,4.092530369088308-4.446020138107087,6.351457340154411-.141690530873348.093756100935025-.3638597326335.238295948913219-.63972014787123.407006534510401-2.690685736482919,1.645490319756391-9.403095342835513,4.924162684698786-24.766109212742776,2.133576401551181ZM334.810409947003791,62.853081882431979"/>
    <path class="cls-3" d="M351.300008910673569,104.00047724263095c-1.905437202046414-2.223010069053998-2.223010069053089-10.608608458720482-2.223010069053089-10.608608458720482,0-13.910559938245569.063875183630444-19.055612539473259.063875183630444-23.438366207981744,0-3.112462200477239-1.588473049070672-4.382753668508485-4.509895321738441-4.382753668508485-2.414049996863469,0-7.749522266394706,2.794889333469655-14.164866335652732,5.399048868883256-5.716311606138333,2.350163267758035-10.417258401160325,2.667736134765619-10.417258401160325,6.542497267962972,0,2.096167000102469,1.524597865439318,3.048885601125221,2.922042532174601,4.128757400852919,1.778904262847391,1.206714868678318,3.811494663598751,3.810874404091919,3.811494663598751,8.32078127130444,0,0-.318193126515325,10.163882393009771-3.430035067486642,14.102220125559143-1.207024998431734,1.333868067383264-3.747607934492407,3.048885601125221-3.747607934492407,6.16134780160337,0,2.159433469700161,1.206404738924903,4.001604202148883,4.382753668508485,4.001604202148883,5.525891937833876,0,9.210233402728591-.381149466360512,13.91055993824375-.381149466360512,3.620454735788371,0,8.193628072600404.381149466360512,12.068389205797757.381149466360512,4.065180801499992,0,5.39873873912984-1.715017533741047,5.39873873912984-4.255910599557865,0-3.239305269427859-2.223010069053089-3.747607934492407-4.065180801499992-5.970618003546406Z"/>
    <path class="cls-3" d="M427.900817367146374,96.124111907286533c0,3.176038799828348,1.015985070622264,6.415344069257117,3.175728670075841,8.257514801704929,2.350163267758035,2.03259040075045,4.382753668507576,2.540582936061583,4.382753668507576,5.589468537185894,0,2.540893065816817-1.77828400333965,4.255910599557865-5.84346480484237,4.255910599557865-3.747607934492407,0-7.431949399386212-.381149466360512-11.116290864280018-.381149466360512-4.636439806410635,0-6.415344069257117.381149466360512-11.242836817082207.381149466360512-3.048562457768639,0-4.19170072709494-1.842170732448722-4.19170072709494-4.001604202148883,0-2.985309001772293,1.1431382693263-5.462625468235274,1.715017533742866-7.050489803273194,1.206391757410529-3.620764865541787,2.540582936058854-15.117584936676394,2.540582936058854-25.153383741723701,0-10.798097737766511-3.239628332557913-15.562000872634599-9.527806269732537-15.562000872634599-3.810874404092829,0-9.273499872329012,3.239305269429678-9.273499872329012,10.607367939710457v21.024626340869872c0,5.589778666940219.380839336606186,7.685945667041779,2.28627653865351,9.908955736095777,1.842170732448722,2.223010069053998,4.065180801499082,2.731312734118546,4.065180801499082,5.970618003546406,0,2.540893065816817-1.333557937628939,4.255910599557865-5.39873873912984,4.255910599557865-3.938027602795955,0-7.939941934696435-.381149466360512-11.43324347178168-.381149466360512-4.637060065917467,0-8.829394066121495.381149466360512-13.91055993824375.381149466360512-3.239615399183094,0-4.382753668508485-1.842170732448722-4.382753668508485-4.001604202148883,0-3.112462200478149,2.540582936060673-4.827479734220105,3.683721205387883-6.16134780160337,3.175728670075841-3.938337732549371,3.493921796589348-7.685635537288363,3.493921796589348-10.988827535823475v-23.120483211218016c0-4.12875740085201-2.541203195566595-5.907351533947804-4.129067530604516-6.796493535619447-1.397444666735282-.889452131423241-2.540582936062492-1.778594133093975-2.540582936062492-3.684341464893805,0-3.684031335140389,4.637060065916558-4.255600469803539,10.226218473350855-6.796183405865122,7.17764300197814-3.303191998534203,8.638974397817947-4.700636665268576,11.052404135176403-4.700636665268576,2.731002604364221,0,4.25560046980263,1.079871799726789,5.335472269530328,4.891056333572124.44472606571253,2.03259040075045.88945213142415,3.938027602796865,1.905437202045505,3.938027602796865,1.524597865438409,0,8.892660535722825-9.019503604672536,20.580210404910758-9.019503604672536,14.545705672260738,0,20.262637537904084,9.019503604672536,20.262637537904084,23.184369940324359,0,9.400653071032139-1.715017533741047,20.452747076455125-1.715017533741047,25.153073611971195Z"/>
    <path class="cls-3" d="M206.52981257758438,203.134280201732508c-.766203885169489-.985692157928497-1.095035280406591-1.971384315851537-1.861773850771897-1.971384315851537-.547517640204205,0-1.259183635427689.876081692846128-2.46382938091665,2.025922205792085-2.46382938091574,2.190337903412001-6.570746367639003,5.311295389612496-13.3601789802442,5.311295389612496-10.89634959932846,0-20.532980878031594-8.70601169591464-20.532980878031594-27.103727245670598,0-19.930925347884113,9.910390098805692-30.936618069696124,22.449292618744039-30.936618069696124,9.199258788774387,0,12.210605809896151,4.927926104432117,13.086420160144371,4.927926104432117.547517640203296,0,.876349035443127-.821276460304944.876349035443127-4.708972516869835v-4.489751586708735c0-3.176030061338679-2.190070560815911-5.147147034593218-3.559399346520877-5.913618262358796-1.149573170349868-.766738570360758-2.299681025894643-1.533209798126336-2.299681025894643-3.175762718738042,0-2.902003898638213,3.997306521643623-3.504326771382694,8.925499968672739-5.530248977176598,5.530248977175688-2.190337903412001,9.417410348542944-4.654167284328651,12.100460659620694-4.654167284328651,2.299681025893733,0,3.942768631701256,1.149840512947776,3.942768631701256,3.832623481426708,0,7.008653542763568-.547517640205115,6.95411565282302-.547517640205115,22.778124013982961v36.795431099511916c0,1.971384315849718.875814350249129,4.38067580682582,3.394716306302143,4.38067580682582.930886925386403,0,1.532942455532975-.328564052641013,2.354218915837009-.328564052641013.711665995226213,0,1.204645745488961,1.095035280406591,1.204645745488961,2.354486258433099,0,6.789432612604287-5.804007797277336,11.717358717036404-12.976809695062911,11.717358717036404-5.311562732212224,0-8.103688823173798-1.532942455531156-10.732201244306452-5.311028047013679ZM204.941797546914131,178.658530691997839c0-13.688743032886123-4.106382301527447-17.90473579949321-8.158226713111617-17.90473579949321-4.544824161848737,0-8.322909753333079,4.215992766607087-8.322909753333079,16.645552164065521,0,12.319948932376064,3.778085591484341,17.685782211930928,9.034575748558382,17.685782211930928,4.271065341743451,0,7.446560717886314-3.394716306302143,7.446560717886314-16.426598576503238Z"/>
    <path class="cls-3" d="M261.007283092660145,150.459768165918831c15.441173761175378,0,29.239259916542323,10.841544366787275,29.239259916542323,30.443905662032194,0,18.452520782295323-12.922271805118726,27.596439653334528-28.582131811259387,27.596439653334528-17.357485501888732,0-28.527593921319749-11.991384879735051-28.527593921319749-28.582131811261206,0-17.466828624368645,11.717626059635222-29.458213504105515,27.870465816036813-29.458213504105515ZM253.013204734567807,172.854522894723232c0,5.366100622150043.821276460306763,12.210338467297333,3.011347021119946,17.247875036806363,1.916311740712445,4.216260109205905,4.763510406812202,6.625551600180188,8.049150933230521,6.625551600180188,3.668475126402882,0,7.172801897786485-2.737855543617115,7.172801897786485-10.896349599326641,0-5.366100622153681-1.423866675647332-12.538902519940166-3.613937236463244-17.521633856911649-2.354218915837009-5.311295389612496-5.366100622152771-7.994345700688427-8.32290975333035-7.994345700688427-3.120957486201405,0-6.296452862343358,2.737855543615296-6.296452862343358,12.538902519940166Z"/>
    <path class="cls-3" d="M336.291512114593388,179.972768988555799c.095287366590128,0,.492524813883392-.052838356656139.930854453440588-1.423573098420093,1.054286095110001-3.296911871035263,5.499143246644053-24.887195498153233,10.926103793291986-36.302897255785865.943686071967932-1.985043633001624,2.557911436006179-5.010436905342431,5.716311606138333-7.621748808183838,1.417525568238489-1.171980336348497,4.002301994092704-2.968445696456911,7.621748808183838-3.81087440409101,3.82548926869913-.890382520683488,8.568730008777493-.659626601389391,8.892040276215084.635145734013349.176347530763451.706184830549319-1.10437205020844,1.15909056849523-3.17572867007766,3.17572867007766-4.87570223909006,4.746902012442661-7.218129036843493,11.495617941154705-8.256894542199007,14.608351882352508-4.3574393274248,13.057373604804525-8.714917421068094,26.11474720960905-13.072356748493803,39.172140197524641-1.532932602549408,4.873107574119786-3.997301151825923,10.951146770839841-5.694408692334946,13.524603460713479-3.340174971573106,5.092059179694843-9.527534906204892,6.680078579609471-11.608001587563194,6.680078579609471-3.340174971572196,0-5.037825239150152-1.806971005489686-6.57075784169956-5.092330543229764-.273767039404447-.656854816719715-1.971378540763908-4.599379300932924-3.559397940679446-8.815360694799892l-17.466546451641079-46.158568823704627c-.82130111821607-2.190349529450032-2.354776447832592-4.873398320765773-4.928194371486825-7.556175748550231-1.095029391401113-1.149844825233231-3.066446698384425-2.792660275868911-3.066446698384425-4.708971402376847,0-3.230563487019026,2.354776447831682-4.216272140511137,7.118291920509364-4.216272140511137,3.176000033610762,0,6.13281586433277.328563090128227,11.717632455225612.328563090128227,5.585320551741461,0,9.910894047052352-.328563090128227,13.46978802688227-.328563090128227,3.449767073016119,0,5.201922644672777,1.478407915361458,5.201922644672777,3.83289361655261,0,3.504330526422564-5.639864622039568,4.599359917823676-5.639864622039568,10.184428489141283,0,3.066407932165021,8.267865382209493,28.472799402958117,10.677147134120787,33.072139937672546.273767039406266.547534078812532.547534078811623.821262351995756.766757047918873.821262351995756Z"/>
    <path class="cls-3" d="M444.863599736032484,152.978402779376665v36.850236332051281c0,4.818582981950385.821276460306763,6.625551600180188,2.463829380918469,8.541863340895361,1.588015030669339,1.916311740711535,3.504326771380875,2.354486258433099,3.504326771380875,5.146879691990762,0,2.190337903412001-1.149573170350777,3.668742469002609-4.653899941731652,3.668742469002609-3.230567951279227,0-7.392022827943947-.328564052641013-10.403369849067531-.328564052641013-3.997306521643623,0-7.611243758103228.328564052641013-11.991384879733232.328564052641013-2.738122886214114,0-3.778085591484341-1.588015030669339-3.778085591484341-3.449521538841509,0-2.68305031107775,2.190070560815002-4.161454876666539,3.230567951281046-5.311295389614315,2.683050311075931-3.394983648899142,2.956809131177579-6.62528425758137,2.956809131177579-9.472750266277217v-43.913427764759035c0-2.956809131177579-2.080994780930268-4.544824161846918-3.449788881440327-5.311295389612496-1.204645745488961-.766738570364396-2.299681025893733-1.533209798129974-2.299681025893733-3.17576271874168,0-2.902003898636394,3.997306521641804-3.504326771379056,8.924965283476922-5.53024897717296,5.530248977176598-2.19033790341382,9.41794503373967-4.65416728433047,12.100995344813782-4.65416728433047,2.245143135955004,0,3.887696056564891,1.149840512945957,3.887696056564891,3.832623481424889,0,7.008653542765387-.492979750262748,6.95411565282302-.492979750262748,22.77812401398478Z"/>
    <path class="cls-3" d="M477.604512997982965,182.601031981102096c-1.039962705270227.054805232539366-1.477869880392973.273758820101648-1.477869880392973,1.040497390466044,0,3.504326771380875,3.613402551265608,9.362872458601487,12.483829944800164,9.362872458601487,7.227874472924668,0,11.443867239533574-3.339911073764597,14.236528015688236-5.913350919759978.766203885168579-.602322872742661,1.642552920609887-1.040497390466044,2.299681025893733-1.040497390466044,1.149573170350777,0,1.861773850770987,1.095302623005409,1.861773850770987,3.449521538843328,0,7.720586880586779-8.980037858615106,18.616936479915239-24.530287399673398,18.616936479915239-17.412558077025096,0-27.760855350956263-11.553477704610486-27.760855350956263-27.870465816034994,0-16.316988111422688,11.662553484497039-30.334295196951643,29.40340827156615-30.334295196951643,16.097767181265226,0,21.901774978539834,12.155533234759787,21.901774978539834,19.71197176032365,0,4.051844411585989-2.135532670870816,6.406330670020907-5.201417581933129,7.994078358091429-6.132839192516258,3.175762718739861-17.685782211934566,4.544824161846918-23.216565874303342,4.982731336971483ZM482.204409734966248,159.494343914476303c-5.311562732209495,0-8.651741148569272,5.475443744635413-8.651741148569272,11.005692721810192,0,2.354486258436737.766738570362577,3.723547701541975,2.409291490972464,3.723547701541975,2.7926607761583,0,9.199258788776206-1.58801503066752,11.663088169694674-4.599362051789285.711665995222575-.876349035443127,1.040497390464225-1.806968618231622,1.040497390464225-3.066419596258129,0-3.997039179046624-2.628512421133564-7.063458775304753-6.461135902562091-7.063458775304753Z"/>
    <path class="cls-3" d="M256.052338929101097,50.785312936140144c4.876131339211497-3.265627532209692,5.995118254028057-2.775680671897135,6.351457340153502-2.540699234718886,1.174655205469207.774587824181253.852391625947348,3.256595003154871.635145734015168,4.446020138107087,0,.000058149329561-2.101826868093667,16.629079820054358-1.905437202046414,34.933015370845169,0,.000058149327742.11060002314116,10.307375553072234,2.335587169369319,10.563639644546129,1.24772952850708.143706374267822,3.168905815512517-3.557188266189769,5.335472269531238-3.557188266189769.88945213142415,0,1.7789042628483.63576599352109,1.7789042628483,3.049195730878637,0,6.478610538856628-6.860070134970556,18.039007209345073-20.199060938552066,18.039007209345073-6.860070134969646,0-11.052404135174584-4.954012673419129-12.32269560320583-8.511200939608898-.508302665063638-1.397444666735282-.762298932719204-2.414049996864378-1.397444666734373-2.414049996864378-.507992535312042,0-1.016295200374771.508612794817964-1.778594133094884,1.397444666736192-4.82716960446669,5.336092529035341-8.684563471497313,7.47412704578619-16.942078273204061,7.47412704578619-10.290105202456289,0-19.054372020461415-9.399412552020294-19.054372020461415-26.040975094629175,0-19.502044318825028,7.05157525741015-31.878586200386053,17.315280664646707-36.86531756273871,4.973628380292212-2.416492268667753,10.302161496601002-2.510228986492621,11.169400584470168-2.513601647555333.021786615145174-.000077532438809.053729979696982-.000174447986865.096876781574792-.000116298658213,2.24863453989019.002577953571745,6.278964510403057.369597133062598,11.432623212274848,3.175844968734054,6.037063303113428,3.287278465587406,5.64323728310228,5.820612118673125,8.256894542199007,5.716311606138333,2.43614674176024-.097206294435637,2.806209069452052-2.275654594614934,8.892040276215994-6.351457340153502ZM225.612173289058774,86.499738985728982c0,8.766127596521983,2.413739867109143,11.433863731288511,5.208319070825382,11.433863731288511,4.319487198908973,0,8.892660535721006-9.909265865850102,8.892660535721006-25.407690139132683,0-8.384668000408965-2.286586668406017-11.052404135174584-4.446330267860503-11.052404135174584-5.081476001874762,0-9.654649338685886,11.687549869190661-9.654649338685886,25.026230543018755Z"/>
    <path class="cls-3" d="M490.814660315778383,50.785312936140144c4.876131339211497-3.265627532209692,5.995118254028057-2.775680671897135,6.351457340153502-2.540699234718886,1.174655205468298.774587824181253.852391625947348,3.256595003154871.635145734013349,4.446020138107087,0,.000058149329561-2.101826868092758,16.629079820054358-1.905437202043686,34.933015370845169,0,.000058149327742.11060002314116,10.307375553072234,2.335587169371138,10.563639644546129,1.247729528502532.143706374267822,3.168905815509788-3.557188266189769,5.335472269529419-3.557188266189769.88945213142506,0,1.778904262846481.63576599352109,1.778904262846481,3.049195730878637,0,6.478610538856628-6.860070134967827,18.039007209345073-20.199060938550247,18.039007209345073-6.860070134971465,0-11.052404135174584-4.954012673419129-12.322695603206739-8.511200939608898-.508302665062729-1.397444666735282-.762298932719204-2.414049996864378-1.397444666734373-2.414049996864378-.507992535311132,0-1.01629520037568.508612794817964-1.778594133094884,1.397444666736192-4.82716960446669,5.336092529035341-8.684563471500951,7.47412704578619-16.94207827320497,7.47412704578619-10.290105202455379,0-19.054372020460505-9.399412552020294-19.054372020460505-26.040975094629175,0-19.502044318825028,7.05157525741015-31.878586200386053,17.315280664646707-36.86531756273871,4.973628380292212-2.416492268667753,10.302161496600093-2.510228986492621,11.169400584469258-2.513601647555333.021786615145174-.000077532438809.053729979697891-.000174447986865.096876781575702-.000116298658213,2.24863453989019.002577953571745,6.278964510402147.369597133062598,11.432623212274848,3.175844968734054,6.037063303114337,3.287278465587406,5.64323728310228,5.820612118673125,8.256894542200826,5.716311606138333,2.436146741758421-.097206294435637,2.806209069451143-2.275654594614934,8.892040276214175-6.351457340153502ZM460.374494675736059,86.499738985728982c0,8.766127596521983,2.413739867108234,11.433863731288511,5.208319070825382,11.433863731288511,4.319487198910792,0,8.892660535722825-9.909265865850102,8.892660535722825-25.407690139132683,0-8.384668000408965-2.286586668407836-11.052404135174584-4.446330267859594-11.052404135174584-5.0814760018784,0-9.654649338688614,11.687549869190661-9.654649338688614,25.026230543018755Z"/>
    <path class="cls-3" d="M405.997277833179396,152.497186103416425c4.203394246687822-2.815084136544101,5.167999757217331-2.392732958825945,5.475176402040233-2.190170814288649,1.012593506824487.667721555717435.734791129929363,2.807297783383547.547517640203296,3.832623481426708,0,.000050126735005-1.811847620640037,14.334843256010572-1.642552920613525,30.113470211203094,0,.000050126738643.095341053925949,8.885315034449377,2.0133571037004,9.106223564755055,1.075586106420815.12387987623697,2.731706663867953-3.066419596258129,4.599362051789285-3.066419596258129.766738570362577,0,1.533477140726973.548052325399112,1.533477140726973,2.628512421135383,0,5.584786867117145-5.913618262356977,15.550249541060111-17.412290734428097,15.550249541060111-5.913618262358796,0-9.52755549882022-4.270530656549454-10.622590779224993-7.336950252809402-.438174517723382-1.204645745487142-.657128105285665-2.080994780930268-1.204645745488961-2.080994780930268-.437907175124565,0-.876081692847038.438441860318562-1.533209798129974,1.204645745488961-4.161187534066812,4.599896736983283-7.486394764953729,6.442956605913423-14.604658772797848,6.442956605913423-8.870427393533646,0-16.425529206110696-8.102619452782164-16.425529206110696-22.448223248355134,0-16.811438245969839,6.078702316470299-27.48044638373176,14.926372171373259-31.779181684345531,4.287440075857376-2.083100103889592,8.88082033702176-2.163904404060304,9.628410493819501-2.166811754810624.018780817494189-.000066835651523.046317105061462-.000150380210471.083511143973737-.000100253473647,1.938400922854271.002222285344033,5.412685069812142.318605540876888,9.855317523667509,2.737688454493764,5.204157843563735,2.833747991646305,4.864666162238791,5.017569419238498,7.117729322650121,4.927658761831481,2.100042941019638-.083795195483617,2.419049495792933-1.961693146682592,7.665246962849778-5.475176402036595ZM379.756799835662605,183.284259407492755c0,7.556705868160861,2.080727438334179,9.856386894056413,4.489751586709644,9.856386894056413,3.723547701542884,0,7.665781648048323-8.542130683490541,7.665781648048323-21.902309663733831,0-7.227874472924668-1.971116973250901-9.52755549882022-3.832890824024616-9.52755549882022-4.380408464227912,0-8.322642410733351,10.075073139021697-8.322642410733351,21.573478268497638Z"/>
  </g>
</svg>